<?xml version="1.0" encoding="UTF-8"?>
<svg width="9px" height="15px" viewBox="0 0 9 15" version="1.1" xmlns="http://www.w3.org/2000/svg" xmlns:xlink="http://www.w3.org/1999/xlink">
    <!-- Generator: Sketch 49.3 (51167) - http://www.bohemiancoding.com/sketch -->
    <title>Shape Copy 16</title>
    <desc>Created with Sketch.</desc>
    <defs></defs>
    <g id="Page-1" stroke="none" stroke-width="1" fill="none" fill-rule="evenodd">
        <g id="Events" transform="translate(-956.000000, -1875.000000)" fill="#363636" fill-rule="nonzero">
            <g id="Calendar" transform="translate(926.000000, 1675.000000)">
                <path d="M31.6166822,214.741075 C31.2471628,215.086015 30.6476934,215.086351 30.2777299,214.741825 C29.9077664,214.397299 29.9074063,213.838377 30.2769258,213.493437 L36.7129031,207.50001 L30.2769258,201.506583 C30.0378886,201.283446 29.9446872,200.95836 30.0324297,200.653781 C30.1201722,200.349202 30.3755283,200.111404 30.7023079,200.029962 C31.0290875,199.94852 31.3776451,200.035808 31.6166822,200.258945 L38.7224432,206.876191 C38.9001399,207.041525 39,207.265972 39,207.500032 C39,207.734093 38.9001399,207.95854 38.7224432,208.123873 L31.6166822,214.741075 Z" id="Shape-Copy-16" transform="translate(34.500000, 207.500000) rotate(180.000000) translate(-34.500000, -207.500000) "></path>
            </g>
        </g>
    </g>
</svg>