<?xml version="1.0" encoding="utf-8"?>
<!-- Generator: Adobe Illustrator 22.1.0, SVG Export Plug-In . SVG Version: 6.00 Build 0)  -->
<svg version="1.1" id="Layer_1" xmlns="http://www.w3.org/2000/svg" xmlns:xlink="http://www.w3.org/1999/xlink" x="0px" y="0px"
	 viewBox="0 0 64 64" style="enable-background:new 0 0 64 64;" xml:space="preserve">
<title>CalendarAdd</title>
<path d="M50,54H14c-2.2,0-4-1.8-4-4V16c0-2.2,1.8-4,4-4h3c0.6,0,1,0.4,1,1v0.8c0,2.1,1.5,3.9,3.6,4.2c2.2,0.2,4.2-1.4,4.4-3.6
	c0-0.1,0-0.3,0-0.4v-1c0-0.6,0.4-1,1-1h10c0.6,0,1,0.4,1,1v0.8c0,2.1,1.5,3.9,3.6,4.2c2.2,0.2,4.2-1.4,4.4-3.6c0-0.1,0-0.3,0-0.4v-1
	c0-0.6,0.4-1,1-1h3c2.2,0,4,1.8,4,4v34C54,52.2,52.2,54,50,54C50,54,50,54,50,54z M50,25c0-0.6-0.4-1-1-1H15c-0.6,0-1,0.4-1,1v24
	c0,0.6,0.4,1,1,1h34c0.6,0,1-0.4,1-1V25z M42,16c-1.1,0-2-0.9-2-2v-4c0-1.1,0.9-2,2-2s2,0.9,2,2v4C44,15.1,43.1,16,42,16L42,16z
	 M22,16c-1.1,0-2-0.9-2-2v-4c0-1.1,0.9-2,2-2s2,0.9,2,2v4C24,15.1,23.1,16,22,16C22,16,22,16,22,16z"/>
<path d="M23.2,37c-0.2-4.6,3.9-8.9,8.5-8.9c2.4-0.2,4.6,0.7,6.4,2.2c-0.7,0.8-1.5,1.6-2.3,2.3c-1.6-1-3.5-1.7-5.3-1
	c-3,0.8-4.7,4.3-3.6,7.2c0.9,3,4.6,4.7,7.5,3.4c1.5-0.5,2.5-1.9,2.9-3.4c-1.7,0-3.4,0-5.1-0.1c0-1,0-2,0-3c2.8,0,5.7,0,8.5,0
	c0.2,2.5-0.2,5.2-1.8,7.1c-2.2,2.9-6.3,3.7-9.6,2.6C25.7,44.3,23.2,40.7,23.2,37L23.2,37z"/>
</svg>
