<svg id="Layer_1" data-name="Layer 1" xmlns="http://www.w3.org/2000/svg" viewBox="0 0 64 64"><defs><style>.cls-1{fill-rule:evenodd;}</style></defs><title>CalendarAdd</title><path class="cls-1" d="M50.0022,53.9845h-36a4,4,0,0,1-4-4v-34a4,4,0,0,1,4-4h3a1,1,0,0,1,1,1v.8281A4.1159,4.1159,0,0,0,21.61,17.9657a4.0006,4.0006,0,0,0,4.3927-3.9813v-1a1,1,0,0,1,1-1h10a1,1,0,0,1,1,1v.8281a4.116,4.116,0,0,0,3.607,4.1531,4.0007,4.0007,0,0,0,4.393-3.9813v-1a1,1,0,0,1,1-1h3a4,4,0,0,1,4,4v34A4,4,0,0,1,50.0022,53.9845Zm0-29a1,1,0,0,0-1-1h-34a1,1,0,0,0-1,1v24a1,1,0,0,0,1,1h34a1,1,0,0,0,1-1Zm-11,14h-5v5a2,2,0,1,1-4,0v-5h-5a2,2,0,1,1,0-4h5v-5a2,2,0,1,1,4,0v5h5a2,2,0,1,1,0,4Zm3-23a2,2,0,0,1-2-2v-4a2,2,0,1,1,4,0v4A2,2,0,0,1,42.0024,15.9845Zm-20,0a2,2,0,0,1-2-2v-4a2,2,0,1,1,4,0v4A2,2,0,0,1,22.0022,15.9845Z"/></svg>