<svg xmlns="http://www.w3.org/2000/svg" viewBox="0 0 19.017 19.018"><defs><style>.a{fill:#3282c1;}</style></defs><path class="a" d="M11.01,10.009h0a1,1,0,1,0,1,1,.988.988,0,0,0-1-1Zm-3-1a1,1,0,1,0-1-1,.988.988,0,0,0,1,1Zm3-2h0a1,1,0,1,0,1,1,.988.988,0,0,0-1-1Zm1-5h-5V4h5Zm2,7.006a1,1,0,1,0-1-1,.988.988,0,0,0,1,1Zm0,3a1,1,0,1,0-1-1,.988.988,0,0,0,1,1Zm-6.005,0a1,1,0,1,0-1-1,.988.988,0,0,0,1,1Zm-3,3a1,1,0,1,0-1-1,.988.988,0,0,0,1,1ZM17.015,2h-1V4h1V17.015H2V4H3V2H2A1.976,1.976,0,0,0,0,4V17.015a1.976,1.976,0,0,0,2,2H17.015a1.976,1.976,0,0,0,2-2V4a1.976,1.976,0,0,0-2-2ZM5,12.011a1,1,0,1,0-1-1,.988.988,0,0,0,1,1Zm0-3a1,1,0,1,0-1-1,.988.988,0,0,0,1,1Zm3,6.005a1,1,0,1,0-1-1,.988.988,0,0,0,1,1ZM5,4a.988.988,0,0,0,1-1V1A1,1,0,0,0,4,1V3A.988.988,0,0,0,5,4Zm9.008,0a.988.988,0,0,0,1-1V1a1,1,0,0,0-2,0V3a.988.988,0,0,0,1,1Zm0,0"/></svg>