<?xml version="1.0" encoding="utf-8"?>
<!-- Generator: Adobe Illustrator 22.1.0, SVG Export Plug-In . SVG Version: 6.00 Build 0)  -->
<svg version="1.1" id="Layer_1" xmlns="http://www.w3.org/2000/svg" xmlns:xlink="http://www.w3.org/1999/xlink" x="0px" y="0px"
	 viewBox="0 0 91.7 91.8" style="enable-background:new 0 0 91.7 91.8;" xml:space="preserve">
<path d="M72.8,31.8c0,1.1-0.9,2-2,2h-50c-1.1,0-2-0.9-2-2v-2c0-1.1,0.9-2,2-2h50c1.1,0,2,0.9,2,2V31.8z"/>
<path d="M66.8,47.8c0,1.1-0.9,2-2,2h-38c-1.1,0-2-0.9-2-2v-2c0-1.1,0.9-2,2-2h38c1.1,0,2,0.9,2,2V47.8z"/>
<path d="M60.8,63.8c0,1.1-0.9,2-2,2h-26c-1.1,0-2-0.9-2-2v-2c0-1.1,0.9-2,2-2h26c1.1,0,2,0.9,2,2V63.8z"/>
<path d="M45.8,6.8c21.5,0,39,17.5,39,39s-17.5,39-39,39s-39-17.5-39-39S24.3,6.8,45.8,6.8 M45.8,0.8c-24.9,0-45,20.1-45,45
	s20.1,45,45,45s45-20.1,45-45S70.7,0.8,45.8,0.8L45.8,0.8z"/>
</svg>
