<svg id="Layer_1" data-name="Layer 1" xmlns="http://www.w3.org/2000/svg" viewBox="0 0 64 64"><defs><style>.cls-1{fill-rule:evenodd;}</style></defs><title>Mail</title><path d="M53.0209,14.0068h-42a3,3,0,0,0-3,3V19.273a3,3,0,0,0,1.2008,2.4005L30.223,37.414a2.9966,2.9966,0,0,0,3.5985,0L54.82,21.6753a3.0006,3.0006,0,0,0,1.2006-2.4005v-2.268A3,3,0,0,0,53.0209,14.0068Zm1.8161,10.154L35.0211,39.0144a5,5,0,0,1-5.9978,0L9.2048,24.159a.74.74,0,0,0-1.184.5921V47.0068a3,3,0,0,0,3,3h42a3,3,0,0,0,3-3V24.7529A.74.74,0,0,0,54.837,24.1608Z"/></svg>
